# xmcd CD database file
#
# Track frame offsets:
#	150
#	34672
#	43275
#	74035
#	97442
#	128177
#	136482
#	177657
#	202975
#
# Disc length: 3180 seconds
#
# Revision: 0
# Processed by: cddbd v1.5.2PL0 Copyright (c) Steve Scherf et al.
# Submitted via: CDex 1.51
#
DISCID=940c6a09
DTITLE=Zoralkia - Les Secrets du Temps III "Voyages Célestes"
DYEAR=1900
DGENRE=New Age
TTITLE0=Chant D'étoiles
TTITLE1=Messagers de l'espace
TTITLE2=Songe d'Orion
TTITLE3=Azur Cosmique
TTITLE4=Cristal de Comète
TTITLE5=Espaces Eternels
TTITLE6=Voiles Célestes
TTITLE7=Prismes Etoilés
TTITLE8=Éclats Stellaires
EXTD=
EXTT0=
EXTT1=
EXTT2=
EXTT3=
EXTT4=
EXTT5=
EXTT6=
EXTT7=
EXTT8=
PLAYORDER=
